<svg xmlns="http://www.w3.org/2000/svg" width="420" height="420" viewBox="0 0 420 420" fill="none"><rect x="42" y="164.25" width="128" height="82" rx="18" fill="#f8fafc" stroke="#cbd5e1" stroke-width="5"/><rect x="54" y="176.25" width="104" height="58" rx="12" fill="#111827"/><rect x="94" y="246.25" width="24" height="58" rx="10" fill="#94a3b8"/><path d="M 62 324.25 L 118 300.25 L 148 322.25" stroke="#94a3b8" stroke-width="8" stroke-linecap="round" fill="none"/><ellipse cx="230" cy="318" rx="82" ry="17" fill="rgba(15,23,42,0.16)"/><path d="M 336 239.67 Q 384 182.11 380 301.13" stroke="#2f343b" stroke-width="18" stroke-linecap="round" fill="none"/><ellipse cx="234" cy="229.67" rx="62" ry="56" fill="#2f343b"/><ellipse cx="234" cy="219.67" rx="28" ry="24" fill="#ffffff"/><circle cx="234" cy="143.56" r="46" fill="#2f343b"/><path d="M 199 125.56 L 216 87.56 L 230 129.56 Z" fill="#2f343b"/><path d="M 239 129.56 L 255 85.56 L 275 123.56 Z" fill="#2f343b"/><path d="M 208 155.56 C 222 169.56 248 169.56 260 151.56 C 240 141.56 224 141.56 208 155.56 Z" fill="#ffffff"/><path d="M 230 123.56 L 238 159.56 L 228 159.56 Z" fill="#ffffff"/><circle cx="220" cy="145.56" r="5.5" fill="#0f172a"/><circle cx="248" cy="145.56" r="5.5" fill="#0f172a"/><path d="M 200 205.67 L 268 205.67 L 280 285.67 L 188 285.67 Z" fill="#0f1114"/><rect x="206" y="213.67" width="56" height="16" rx="8" fill="#f97316" opacity="0.92"/><rect x="194" y="272.74" width="20" height="66" rx="10" fill="#2f343b"/><rect x="254" y="286.6" width="20" height="66" rx="10" fill="#2f343b"/><ellipse cx="204" cy="342.74" rx="16" ry="9" fill="#ffffff"/><ellipse cx="264" cy="356.6" rx="16" ry="9" fill="#ffffff"/></svg>