<svg xmlns="http://www.w3.org/2000/svg" width="2520" height="420" viewBox="0 0 2520 420" fill="none"><g transform="translate(0 0)"><rect x="252" y="126" width="74" height="26" rx="12" fill="#202833"/><circle cx="334" cy="138" r="26" fill="#111827"/><rect x="206" y="150" width="36" height="18" rx="8" fill="#cbd5e1"/><path d="M 234 178 L 198 272" stroke="#94a3b8" stroke-width="8" stroke-linecap="round"/><path d="M 258 178 L 286 270" stroke="#94a3b8" stroke-width="8" stroke-linecap="round"/><path d="M 236 178 L 256 274" stroke="#64748b" stroke-width="8" stroke-linecap="round"/><ellipse cx="156" cy="320" rx="82" ry="17" fill="rgba(15,23,42,0.16)"/><path d="M 262 246 Q 310 193.08 306 304" stroke="#2f343b" stroke-width="18" stroke-linecap="round" fill="none"/><ellipse cx="160" cy="236" rx="62" ry="56" fill="#2f343b"/><ellipse cx="160" cy="226" rx="28" ry="24" fill="#ffffff"/><circle cx="160" cy="153.36" r="46" fill="#2f343b"/><path d="M 125 135.36 L 142 97.36 L 156 139.36 Z" fill="#2f343b"/><path d="M 165 139.36 L 181 95.36 L 201 133.36 Z" fill="#2f343b"/><path d="M 134 165.36 C 148 179.36 174 179.36 186 161.36 C 166 151.36 150 151.36 134 165.36 Z" fill="#ffffff"/><path d="M 156 133.36 L 164 169.36 L 154 169.36 Z" fill="#ffffff"/><circle cx="146" cy="155.36" r="5.5" fill="#0f172a"/><circle cx="174" cy="155.36" r="5.5" fill="#0f172a"/><path d="M 126 212 L 194 212 L 206 292 L 114 292 Z" fill="#0f1114"/><rect x="132" y="220" width="56" height="16" rx="8" fill="#fb923c" opacity="0.92"/><rect x="120" y="286" width="20" height="66" rx="10" fill="#2f343b"/><rect x="180" y="286" width="20" height="66" rx="10" fill="#2f343b"/><ellipse cx="130" cy="356" rx="16" ry="9" fill="#ffffff"/><ellipse cx="190" cy="356" rx="16" ry="9" fill="#ffffff"/></g><g transform="translate(420 0)"><rect x="252" y="130.33" width="74" height="26" rx="12" fill="#202833"/><circle cx="334" cy="142.33" r="26" fill="#111827"/><rect x="206" y="154.33" width="36" height="18" rx="8" fill="#cbd5e1"/><path d="M 234 182.33 L 198 276.33" stroke="#94a3b8" stroke-width="8" stroke-linecap="round"/><path d="M 258 182.33 L 286 274.33" stroke="#94a3b8" stroke-width="8" stroke-linecap="round"/><path d="M 236 182.33 L 256 278.33" stroke="#64748b" stroke-width="8" stroke-linecap="round"/><ellipse cx="156" cy="320" rx="82" ry="17" fill="rgba(15,23,42,0.16)"/><path d="M 262 250.33 Q 310 196.97 306 304.87" stroke="#2f343b" stroke-width="18" stroke-linecap="round" fill="none"/><ellipse cx="160" cy="240.33" rx="62" ry="56" fill="#2f343b"/><ellipse cx="160" cy="230.33" rx="28" ry="24" fill="#ffffff"/><circle cx="160" cy="159.8" r="46" fill="#2f343b"/><path d="M 125 141.8 L 142 103.8 L 156 145.8 Z" fill="#2f343b"/><path d="M 165 145.8 L 181 101.8 L 201 139.8 Z" fill="#2f343b"/><path d="M 134 171.8 C 148 185.8 174 185.8 186 167.8 C 166 157.8 150 157.8 134 171.8 Z" fill="#ffffff"/><path d="M 156 139.8 L 164 175.8 L 154 175.8 Z" fill="#ffffff"/><circle cx="146" cy="161.8" r="5.5" fill="#0f172a"/><circle cx="174" cy="161.8" r="5.5" fill="#0f172a"/><path d="M 126 216.33 L 194 216.33 L 206 296.33 L 114 296.33 Z" fill="#0f1114"/><rect x="132" y="224.33" width="56" height="16" rx="8" fill="#fb923c" opacity="0.92"/><rect x="120" y="297.26" width="20" height="66" rx="10" fill="#2f343b"/><rect x="180" y="283.4" width="20" height="66" rx="10" fill="#2f343b"/><ellipse cx="130" cy="367.26" rx="16" ry="9" fill="#ffffff"/><ellipse cx="190" cy="353.4" rx="16" ry="9" fill="#ffffff"/></g><g transform="translate(840 0)"><rect x="252" y="130.33" width="74" height="26" rx="12" fill="#202833"/><circle cx="334" cy="142.33" r="26" fill="#111827"/><rect x="206" y="154.33" width="36" height="18" rx="8" fill="#cbd5e1"/><path d="M 234 182.33 L 198 276.33" stroke="#94a3b8" stroke-width="8" stroke-linecap="round"/><path d="M 258 182.33 L 286 274.33" stroke="#94a3b8" stroke-width="8" stroke-linecap="round"/><path d="M 236 182.33 L 256 278.33" stroke="#64748b" stroke-width="8" stroke-linecap="round"/><ellipse cx="156" cy="320" rx="82" ry="17" fill="rgba(15,23,42,0.16)"/><path d="M 262 250.33 Q 310 191.89 306 304.87" stroke="#2f343b" stroke-width="18" stroke-linecap="round" fill="none"/><ellipse cx="160" cy="240.33" rx="62" ry="56" fill="#2f343b"/><ellipse cx="160" cy="230.33" rx="28" ry="24" fill="#ffffff"/><circle cx="160" cy="158.44" r="46" fill="#2f343b"/><path d="M 125 140.44 L 142 102.44 L 156 144.44 Z" fill="#2f343b"/><path d="M 165 144.44 L 181 100.44 L 201 138.44 Z" fill="#2f343b"/><path d="M 134 170.44 C 148 184.44 174 184.44 186 166.44 C 166 156.44 150 156.44 134 170.44 Z" fill="#ffffff"/><path d="M 156 138.44 L 164 174.44 L 154 174.44 Z" fill="#ffffff"/><circle cx="146" cy="160.44" r="5.5" fill="#0f172a"/><circle cx="174" cy="160.44" r="5.5" fill="#0f172a"/><path d="M 126 216.33 L 194 216.33 L 206 296.33 L 114 296.33 Z" fill="#0f1114"/><rect x="132" y="224.33" width="56" height="16" rx="8" fill="#fb923c" opacity="0.92"/><rect x="120" y="297.26" width="20" height="66" rx="10" fill="#2f343b"/><rect x="180" y="283.4" width="20" height="66" rx="10" fill="#2f343b"/><ellipse cx="130" cy="367.26" rx="16" ry="9" fill="#ffffff"/><ellipse cx="190" cy="353.4" rx="16" ry="9" fill="#ffffff"/></g><g transform="translate(1260 0)"><rect x="252" y="126" width="74" height="26" rx="12" fill="#202833"/><circle cx="334" cy="138" r="26" fill="#111827"/><rect x="206" y="150" width="36" height="18" rx="8" fill="#cbd5e1"/><path d="M 234 178 L 198 272" stroke="#94a3b8" stroke-width="8" stroke-linecap="round"/><path d="M 258 178 L 286 270" stroke="#94a3b8" stroke-width="8" stroke-linecap="round"/><path d="M 236 178 L 256 274" stroke="#64748b" stroke-width="8" stroke-linecap="round"/><ellipse cx="156" cy="320" rx="82" ry="17" fill="rgba(15,23,42,0.16)"/><path d="M 262 246 Q 310 182.92 306 304" stroke="#2f343b" stroke-width="18" stroke-linecap="round" fill="none"/><ellipse cx="160" cy="236" rx="62" ry="56" fill="#2f343b"/><ellipse cx="160" cy="226" rx="28" ry="24" fill="#ffffff"/><circle cx="160" cy="150.64" r="46" fill="#2f343b"/><path d="M 125 132.64 L 142 94.64 L 156 136.64 Z" fill="#2f343b"/><path d="M 165 136.64 L 181 92.64 L 201 130.64 Z" fill="#2f343b"/><path d="M 134 162.64 C 148 176.64 174 176.64 186 158.64 C 166 148.64 150 148.64 134 162.64 Z" fill="#ffffff"/><path d="M 156 130.64 L 164 166.64 L 154 166.64 Z" fill="#ffffff"/><circle cx="146" cy="152.64" r="5.5" fill="#0f172a"/><circle cx="174" cy="152.64" r="5.5" fill="#0f172a"/><path d="M 126 212 L 194 212 L 206 292 L 114 292 Z" fill="#0f1114"/><rect x="132" y="220" width="56" height="16" rx="8" fill="#fb923c" opacity="0.92"/><rect x="120" y="286" width="20" height="66" rx="10" fill="#2f343b"/><rect x="180" y="286" width="20" height="66" rx="10" fill="#2f343b"/><ellipse cx="130" cy="356" rx="16" ry="9" fill="#ffffff"/><ellipse cx="190" cy="356" rx="16" ry="9" fill="#ffffff"/></g><g transform="translate(1680 0)"><rect x="252" y="121.67" width="74" height="26" rx="12" fill="#202833"/><circle cx="334" cy="133.67" r="26" fill="#111827"/><rect x="206" y="145.67" width="36" height="18" rx="8" fill="#cbd5e1"/><path d="M 234 173.67 L 198 267.67" stroke="#94a3b8" stroke-width="8" stroke-linecap="round"/><path d="M 258 173.67 L 286 265.67" stroke="#94a3b8" stroke-width="8" stroke-linecap="round"/><path d="M 236 173.67 L 256 269.67" stroke="#64748b" stroke-width="8" stroke-linecap="round"/><ellipse cx="156" cy="320" rx="82" ry="17" fill="rgba(15,23,42,0.16)"/><path d="M 262 241.67 Q 310 179.03 306 303.13" stroke="#2f343b" stroke-width="18" stroke-linecap="round" fill="none"/><ellipse cx="160" cy="231.67" rx="62" ry="56" fill="#2f343b"/><ellipse cx="160" cy="221.67" rx="28" ry="24" fill="#ffffff"/><circle cx="160" cy="144.2" r="46" fill="#2f343b"/><path d="M 125 126.2 L 142 88.2 L 156 130.2 Z" fill="#2f343b"/><path d="M 165 130.2 L 181 86.2 L 201 124.2 Z" fill="#2f343b"/><path d="M 134 156.2 C 148 170.2 174 170.2 186 152.2 C 166 142.2 150 142.2 134 156.2 Z" fill="#ffffff"/><path d="M 156 124.2 L 164 160.2 L 154 160.2 Z" fill="#ffffff"/><circle cx="146" cy="146.2" r="5.5" fill="#0f172a"/><circle cx="174" cy="146.2" r="5.5" fill="#0f172a"/><path d="M 126 207.67 L 194 207.67 L 206 287.67 L 114 287.67 Z" fill="#0f1114"/><rect x="132" y="215.67" width="56" height="16" rx="8" fill="#fb923c" opacity="0.92"/><rect x="120" y="274.74" width="20" height="66" rx="10" fill="#2f343b"/><rect x="180" y="288.6" width="20" height="66" rx="10" fill="#2f343b"/><ellipse cx="130" cy="344.74" rx="16" ry="9" fill="#ffffff"/><ellipse cx="190" cy="358.6" rx="16" ry="9" fill="#ffffff"/></g><g transform="translate(2100 0)"><rect x="252" y="121.67" width="74" height="26" rx="12" fill="#202833"/><circle cx="334" cy="133.67" r="26" fill="#111827"/><rect x="206" y="145.67" width="36" height="18" rx="8" fill="#cbd5e1"/><path d="M 234 173.67 L 198 267.67" stroke="#94a3b8" stroke-width="8" stroke-linecap="round"/><path d="M 258 173.67 L 286 265.67" stroke="#94a3b8" stroke-width="8" stroke-linecap="round"/><path d="M 236 173.67 L 256 269.67" stroke="#64748b" stroke-width="8" stroke-linecap="round"/><ellipse cx="156" cy="320" rx="82" ry="17" fill="rgba(15,23,42,0.16)"/><path d="M 262 241.67 Q 310 184.11 306 303.13" stroke="#2f343b" stroke-width="18" stroke-linecap="round" fill="none"/><ellipse cx="160" cy="231.67" rx="62" ry="56" fill="#2f343b"/><ellipse cx="160" cy="221.67" rx="28" ry="24" fill="#ffffff"/><circle cx="160" cy="145.56" r="46" fill="#2f343b"/><path d="M 125 127.56 L 142 89.56 L 156 131.56 Z" fill="#2f343b"/><path d="M 165 131.56 L 181 87.56 L 201 125.56 Z" fill="#2f343b"/><path d="M 134 157.56 C 148 171.56 174 171.56 186 153.56 C 166 143.56 150 143.56 134 157.56 Z" fill="#ffffff"/><path d="M 156 125.56 L 164 161.56 L 154 161.56 Z" fill="#ffffff"/><circle cx="146" cy="147.56" r="5.5" fill="#0f172a"/><circle cx="174" cy="147.56" r="5.5" fill="#0f172a"/><path d="M 126 207.67 L 194 207.67 L 206 287.67 L 114 287.67 Z" fill="#0f1114"/><rect x="132" y="215.67" width="56" height="16" rx="8" fill="#fb923c" opacity="0.92"/><rect x="120" y="274.74" width="20" height="66" rx="10" fill="#2f343b"/><rect x="180" y="288.6" width="20" height="66" rx="10" fill="#2f343b"/><ellipse cx="130" cy="344.74" rx="16" ry="9" fill="#ffffff"/><ellipse cx="190" cy="358.6" rx="16" ry="9" fill="#ffffff"/></g></svg>