<svg xmlns="http://www.w3.org/2000/svg" width="420" height="420" viewBox="0 0 420 420" fill="none"><ellipse cx="144" cy="316" rx="78" ry="16" fill="rgba(15,23,42,0.15)"/><path d="M 290 224.8 Q 338 175.55 324 291.51" stroke="#2f343b" stroke-width="18" stroke-linecap="round" fill="none"/><ellipse cx="198" cy="210.8" rx="66" ry="50" fill="#2f343b"/><ellipse cx="230" cy="202.8" rx="22" ry="18" fill="#ffffff"/><circle cx="246" cy="142.39" r="40" fill="#2f343b"/><path d="M 215 118.39 L 230 84.39 L 249 120.39 Z" fill="#2f343b"/><path d="M 244 116.39 L 261 82.39 L 277 122.39 Z" fill="#2f343b"/><path d="M 234 138.39 C 248 150.39 266 148.39 272 132.39 C 257 122.39 244 124.39 234 138.39 Z" fill="#ffffff"/><circle cx="262" cy="134.39" r="4.6" fill="#0f172a"/><circle cx="271" cy="137.39" r="2.8" fill="#ef4444" opacity="0.78"/><path d="M 272 192.8 L 220 218.8 L 228 280.8 L 276 272.8 Z" fill="#101114"/><path d="M 244 202.8 L 274 200.8 L 274 216.8 L 240 220.8 Z" fill="#ff8f2a" opacity="0.92"/><rect x="244" y="266.41" width="18" height="62" rx="9" fill="#2f343b"/><rect x="216" y="293.2" width="18" height="56" rx="9" fill="#2f343b"/><ellipse cx="251" cy="332.41" rx="16" ry="9" fill="#ffffff"/><ellipse cx="223" cy="347.2" rx="15" ry="8.5" fill="#ffffff"/><path d="M 230 194.8 Q 292 197.76 318 214.8" stroke="#ffffff" stroke-width="14" stroke-linecap="round" fill="none"/></svg>