<svg xmlns="http://www.w3.org/2000/svg" width="420" height="420" viewBox="0 0 420 420" fill="none"><ellipse cx="144" cy="316" rx="78" ry="16" fill="rgba(15,23,42,0.15)"/><path d="M 290 230 Q 338 170.83 324 290.57" stroke="#2f343b" stroke-width="18" stroke-linecap="round" fill="none"/><ellipse cx="198" cy="216" rx="66" ry="50" fill="#2f343b"/><ellipse cx="230" cy="208" rx="22" ry="18" fill="#ffffff"/><circle cx="246" cy="148.44" r="40" fill="#2f343b"/><path d="M 215 124.44 L 230 90.44 L 249 126.44 Z" fill="#2f343b"/><path d="M 244 122.44 L 261 88.44 L 277 128.44 Z" fill="#2f343b"/><path d="M 234 144.44 C 248 156.44 266 154.44 272 138.44 C 257 128.44 244 130.44 234 144.44 Z" fill="#ffffff"/><circle cx="262" cy="140.44" r="4.6" fill="#0f172a"/><circle cx="271" cy="143.44" r="2.8" fill="#ef4444" opacity="0.78"/><path d="M 272 198 L 220 224 L 228 286 L 276 278 Z" fill="#101114"/><path d="M 244 208 L 274 206 L 274 222 L 240 226 Z" fill="#ff8f2a" opacity="0.92"/><rect x="244" y="282" width="18" height="62" rx="9" fill="#2f343b"/><rect x="216" y="288" width="18" height="56" rx="9" fill="#2f343b"/><ellipse cx="251" cy="348" rx="16" ry="9" fill="#ffffff"/><ellipse cx="223" cy="342" rx="15" ry="8.5" fill="#ffffff"/><path d="M 230 200 Q 292 204 318 220" stroke="#ffffff" stroke-width="14" stroke-linecap="round" fill="none"/></svg>