<svg xmlns="http://www.w3.org/2000/svg" width="420" height="420" viewBox="0 0 420 420" fill="none"><ellipse cx="144" cy="316" rx="78" ry="16" fill="rgba(15,23,42,0.15)"/><path d="M 290 235.2 Q 338 187.62 324 293.92" stroke="#2f343b" stroke-width="18" stroke-linecap="round" fill="none"/><ellipse cx="198" cy="221.2" rx="66" ry="50" fill="#2f343b"/><ellipse cx="230" cy="213.2" rx="22" ry="18" fill="#ffffff"/><circle cx="246" cy="159.17" r="40" fill="#2f343b"/><path d="M 215 135.17 L 230 101.17 L 249 137.17 Z" fill="#2f343b"/><path d="M 244 133.17 L 261 99.17 L 277 139.17 Z" fill="#2f343b"/><path d="M 234 155.17 C 248 167.17 266 165.17 272 149.17 C 257 139.17 244 141.17 234 155.17 Z" fill="#ffffff"/><circle cx="262" cy="151.17" r="4.6" fill="#0f172a"/><circle cx="271" cy="154.17" r="2.8" fill="#ef4444" opacity="0.78"/><path d="M 272 203.2 L 220 229.2 L 228 291.2 L 276 283.2 Z" fill="#101114"/><path d="M 244 213.2 L 274 211.2 L 274 227.2 L 240 231.2 Z" fill="#ff8f2a" opacity="0.92"/><rect x="244" y="297.59" width="18" height="62" rx="9" fill="#2f343b"/><rect x="216" y="282.8" width="18" height="56" rx="9" fill="#2f343b"/><ellipse cx="251" cy="363.59" rx="16" ry="9" fill="#ffffff"/><ellipse cx="223" cy="336.8" rx="15" ry="8.5" fill="#ffffff"/><path d="M 230 205.2 Q 292 210.24 318 225.2" stroke="#ffffff" stroke-width="14" stroke-linecap="round" fill="none"/></svg>