<svg xmlns="http://www.w3.org/2000/svg" width="420" height="420" viewBox="0 0 420 420" fill="none"><ellipse cx="140" cy="318" rx="78" ry="16" fill="rgba(15,23,42,0.15)"/><path d="M 286 237.2 Q 334 189.62 320 295.92" stroke="#2f343b" stroke-width="18" stroke-linecap="round" fill="none"/><ellipse cx="194" cy="223.2" rx="66" ry="50" fill="#2f343b"/><ellipse cx="226" cy="215.2" rx="22" ry="18" fill="#ffffff"/><circle cx="242" cy="161.17" r="40" fill="#2f343b"/><path d="M 211 137.17 L 226 103.17 L 245 139.17 Z" fill="#2f343b"/><path d="M 240 135.17 L 257 101.17 L 273 141.17 Z" fill="#2f343b"/><path d="M 230 157.17 C 244 169.17 262 167.17 268 151.17 C 253 141.17 240 143.17 230 157.17 Z" fill="#ffffff"/><circle cx="258" cy="153.17" r="4.6" fill="#0f172a"/><circle cx="267" cy="156.17" r="2.8" fill="#ef4444" opacity="0.78"/><path d="M 268 205.2 L 216 231.2 L 224 293.2 L 272 285.2 Z" fill="#101114"/><path d="M 240 215.2 L 270 213.2 L 270 229.2 L 236 233.2 Z" fill="#ff8f2a" opacity="0.92"/><rect x="240" y="299.59" width="18" height="62" rx="9" fill="#2f343b"/><rect x="212" y="284.8" width="18" height="56" rx="9" fill="#2f343b"/><ellipse cx="247" cy="365.59" rx="16" ry="9" fill="#ffffff"/><ellipse cx="219" cy="338.8" rx="15" ry="8.5" fill="#ffffff"/><path d="M 226 207.2 Q 288 212.24 314 227.2" stroke="#ffffff" stroke-width="14" stroke-linecap="round" fill="none"/><rect x="302" y="215.2" width="48" height="36" rx="12" fill="#111827"/><circle cx="346" cy="233.2" r="18" fill="#202833"/><circle cx="346" cy="233.2" r="9" fill="#ffb56a" opacity="0.8"/><rect x="308" y="205.2" width="20" height="10" rx="4" fill="#0f172a"/></svg>