<svg width="620" height="1080" viewBox="0 0 620 1080" fill="none" xmlns="http://www.w3.org/2000/svg">
  <defs>
    <linearGradient id="page" x1="70" y1="20" x2="520" y2="1010" gradientUnits="userSpaceOnUse">
      <stop stop-color="#FFFDFC"/>
      <stop offset="1" stop-color="#F8F3EC"/>
    </linearGradient>
    <linearGradient id="card" x1="86" y1="42" x2="506" y2="966" gradientUnits="userSpaceOnUse">
      <stop stop-color="#FFFCF8"/>
      <stop offset="1" stop-color="#FFF8F1"/>
    </linearGradient>
    <linearGradient id="screen" x1="134" y1="152" x2="444" y2="464" gradientUnits="userSpaceOnUse">
      <stop stop-color="#1A2338"/>
      <stop offset="1" stop-color="#2A3550"/>
    </linearGradient>
    <linearGradient id="nest" x1="144" y1="320" x2="262" y2="440" gradientUnits="userSpaceOnUse">
      <stop stop-color="#FFE3C4"/>
      <stop offset="1" stop-color="#F1C38E"/>
    </linearGradient>
    <filter id="shadow" x="46" y="24" width="528" height="1004" filterUnits="userSpaceOnUse" color-interpolation-filters="sRGB">
      <feFlood flood-opacity="0" result="BackgroundImageFix"/>
      <feColorMatrix in="SourceAlpha" type="matrix" values="0 0 0 0 0 0 0 0 0 0 0 0 0 0 0 0 0 0 127 0" result="hardAlpha"/>
      <feOffset dy="20"/>
      <feGaussianBlur stdDeviation="14"/>
      <feColorMatrix type="matrix" values="0 0 0 0 0.12549 0 0 0 0 0.113725 0 0 0 0 0.0901961 0 0 0 0.10 0"/>
      <feBlend mode="normal" in2="BackgroundImageFix" result="effect1_dropShadow_1_1"/>
      <feBlend mode="normal" in="SourceGraphic" in2="effect1_dropShadow_1_1" result="shape"/>
    </filter>
  </defs>

  <rect width="620" height="1080" fill="url(#page)"/>

  <g filter="url(#shadow)">
    <rect x="74" y="38" width="472" height="948" rx="38" fill="url(#card)"/>
  </g>

  <g>
    <rect x="110" y="108" width="400" height="430" rx="34" fill="#FFF8F1" stroke="#F6D5B6" stroke-width="2"/>
    <text x="140" y="162" fill="#FE7B1F" font-family="Inter, Arial, sans-serif" font-size="15" font-weight="800" letter-spacing="0.16em">
      VIA 工作通道
    </text>

    <rect x="140" y="182" width="340" height="248" rx="30" fill="url(#screen)"/>
    <text x="174" y="228" fill="#B6C4DE" font-family="Inter, Arial, sans-serif" font-size="18" font-weight="800" letter-spacing="0.18em">
      PAGE PATROL
    </text>
    <text x="174" y="292" fill="#FFFFFF" font-family="Inter, Arial, sans-serif" font-size="54" font-weight="800">
      等待提交
    </text>
    <text x="174" y="332" fill="#BBC6D9" font-family="Inter, Arial, sans-serif" font-size="20" font-weight="600">
      把视频拖进来，或者贴一条公开链接。
    </text>

    <rect x="312" y="280" width="134" height="108" rx="24" fill="#FFF9F1"/>
    <text x="379" y="322" text-anchor="middle" fill="#FE7B1F" font-family="Inter, Arial, sans-serif" font-size="17" font-weight="800" letter-spacing="0.12em">
      PAGE PATROL
    </text>
    <text x="379" y="368" text-anchor="middle" fill="#162033" font-family="Inter, Arial, sans-serif" font-size="44" font-weight="800">
      0%
    </text>

    <rect x="158" y="356" width="120" height="68" rx="30" fill="url(#nest)"/>
    <ellipse cx="214" cy="388" rx="38" ry="25" fill="#2E3138"/>
    <ellipse cx="214" cy="370" rx="31" ry="25" fill="#2E3138"/>
    <ellipse cx="214" cy="378" rx="25" ry="18" fill="#FCFCFD"/>
    <circle cx="203" cy="367" r="4.5" fill="#111827"/>
    <circle cx="225" cy="367" r="4.5" fill="#111827"/>
    <path d="M208 379C212 376 216 376 220 379" stroke="#EA9184" stroke-width="3" stroke-linecap="round"/>
    <path d="M205 386C209 391 219 391 223 386" stroke="#111827" stroke-width="2.5" stroke-linecap="round"/>
    <path d="M192 354L200 338L209 357" fill="#2E3138"/>
    <path d="M236 354L228 338L219 357" fill="#2E3138"/>
    <ellipse cx="214" cy="425" rx="95" ry="10" fill="#D0D7E2"/>
    <ellipse cx="214" cy="425" rx="52" ry="10" fill="#E7A968"/>

    <text x="310" y="470" fill="#94A0B3" font-family="Inter, Arial, sans-serif" font-size="18" font-weight="800" letter-spacing="0.16em">
      猫在窝里守着进度牌
    </text>
  </g>

  <g>
    <rect x="110" y="572" width="400" height="166" rx="30" fill="#FFFFFF" stroke="#E9E1D6" stroke-width="2"/>
    <text x="140" y="626" fill="#162033" font-family="Inter, Arial, sans-serif" font-size="28" font-weight="800">
      Via
    </text>
    <text x="140" y="660" fill="#FE7B1F" font-family="Inter, Arial, sans-serif" font-size="16" font-weight="800" letter-spacing="0.16em">
      VILTROX 实时伴随助手
    </text>
    <rect x="140" y="684" width="292" height="120" rx="26" fill="#F9FBFE" stroke="#E2E8F0" stroke-width="2"/>
    <text x="166" y="722" fill="#A2AFC1" font-family="Inter, Arial, sans-serif" font-size="16" font-weight="800" letter-spacing="0.18em">
      VIA 正在待机
    </text>
    <text x="166" y="762" fill="#415067" font-family="Inter, Arial, sans-serif" font-size="18" font-weight="600">
      你把链接或视频给我，
    </text>
    <text x="166" y="792" fill="#415067" font-family="Inter, Arial, sans-serif" font-size="18" font-weight="600">
      我会直接在这里告诉你排队、
    </text>
    <text x="166" y="822" fill="#415067" font-family="Inter, Arial, sans-serif" font-size="18" font-weight="600">
      分析和审核进度。
    </text>
  </g>

  <g>
    <rect x="110" y="780" width="400" height="118" rx="30" fill="#FFFFFF" stroke="#E9E1D6" stroke-width="2"/>
    <rect x="136" y="806" width="266" height="66" rx="24" fill="#F8FAFD" stroke="#DEE6EF" stroke-width="2"/>
    <text x="164" y="847" fill="#9AA6B9" font-family="Inter, Arial, sans-serif" font-size="20" font-weight="600">
      问 Via 上传、链接、排队状态
    </text>
    <rect x="416" y="812" width="68" height="54" rx="27" fill="#111827"/>
    <text x="450" y="846" text-anchor="middle" fill="#FFFFFF" font-family="Inter, Arial, sans-serif" font-size="18" font-weight="800">
      发送
    </text>
  </g>
</svg>
